<svg width="521" height="571" viewBox="0 0 521 571" fill="none" xmlns="http://www.w3.org/2000/svg">
<path d="M472.767 262.246C472.767 145.026 377.68 50 260.384 50C143.087 50 48 145.026 48 262.246C48 379.466 143.087 474.492 260.384 474.492C377.68 474.492 472.767 379.466 472.767 262.246Z" fill="#46A0D8" fill-opacity="0.2"/>
<g filter="url(#filter0_f_22_191)">
<circle cx="260.171" cy="260.171" r="210.171" fill="#46A0D8" fill-opacity="0.2"/>
</g>
<mask id="mask0_22_191" style="mask-type:luminance" maskUnits="userSpaceOnUse" x="10" y="50" width="500" height="521">
<path d="M32.7273 347.482C32.7273 470.703 134.481 570.593 260 570.593C385.519 570.593 487.273 470.703 487.273 347.482H510V50H10V347.482H32.7273Z" fill="white"/>
</mask>
<g mask="url(#mask0_22_191)">
<path d="M305.454 385.803V419.993H313.03C388.342 419.993 449.394 479.927 449.394 553.86V570.593H70.606V553.86C70.606 479.927 131.658 419.993 206.97 419.993H214.545V385.803C181.899 370.578 158.432 339.463 154.517 302.639C143.485 301.108 135 291.801 135 280.548V254.519C135 243.464 143.19 234.286 153.939 232.516V221.052C153.939 163.549 201.424 116.933 260 116.933C318.576 116.933 366.06 163.549 366.06 221.052V232.516C376.809 234.286 385 243.464 385 254.519V280.548C385 291.801 376.514 301.108 365.483 302.639C361.568 339.463 338.101 370.578 305.454 385.803Z" fill="#D0C6AC"/>
<mask id="mask1_22_191" style="mask-type:luminance" maskUnits="userSpaceOnUse" x="70" y="116" width="380" height="455">
<path d="M305.454 385.803V419.993H313.03C388.342 419.993 449.394 479.927 449.394 553.86V570.593H70.606V553.86C70.606 479.927 131.658 419.993 206.97 419.993H214.545V385.803C181.899 370.578 158.432 339.463 154.517 302.639C143.485 301.108 135 291.801 135 280.548V254.519C135 243.464 143.19 234.286 153.939 232.516V221.052C153.939 163.549 201.424 116.933 260 116.933C318.576 116.933 366.06 163.549 366.06 221.052V232.516C376.809 234.286 385 243.464 385 254.519V280.548C385 291.801 376.514 301.108 365.483 302.639C361.568 339.463 338.101 370.578 305.454 385.803Z" fill="white"/>
</mask>
<g mask="url(#mask1_22_191)">
<path d="M570.606 116.933H70.606V637.526H570.606V116.933Z" fill="#E7AD79"/>
</g>
<mask id="mask2_22_191" style="mask-type:luminance" maskUnits="userSpaceOnUse" x="70" y="116" width="380" height="455">
<path d="M305.454 385.803V419.993H313.03C388.342 419.993 449.394 479.927 449.394 553.86V570.593H70.606V553.86C70.606 479.927 131.658 419.993 206.97 419.993H214.545V385.803C181.899 370.578 158.432 339.463 154.517 302.639C143.485 301.108 135 291.801 135 280.548V254.519C135 243.464 143.19 234.286 153.939 232.516V221.052C153.939 163.549 201.424 116.933 260 116.933C318.576 116.933 366.06 163.549 366.06 221.052V232.516C376.809 234.286 385 243.464 385 254.519V280.548C385 291.801 376.514 301.108 365.483 302.639C361.568 339.463 338.101 370.578 305.454 385.803Z" fill="white"/>
</mask>
<g mask="url(#mask2_22_191)">
<path fill-rule="evenodd" clip-rule="evenodd" d="M366.06 263.815V306.578C366.06 364.081 318.575 410.697 260 410.697C201.424 410.697 153.939 364.081 153.939 306.578V263.815V291.704C153.939 349.207 201.424 395.822 260 395.822C318.575 395.822 366.06 349.207 366.06 291.704V263.815Z" fill="black" fill-opacity="0.1"/>
</g>
<path fill-rule="evenodd" clip-rule="evenodd" d="M214.545 390.377C180.608 394.105 154.469 404.286 153.947 430.488C104.974 450.797 70.606 498.388 70.606 553.859V570.593H449.394V553.859C449.394 498.388 415.026 450.797 366.053 430.488C365.531 404.286 339.391 394.105 305.454 390.377V425.571C305.454 450.215 285.104 470.193 260 470.193C234.896 470.193 214.545 450.215 214.545 425.571V390.377Z" fill="#B7C1DB"/>
<mask id="mask3_22_191" style="mask-type:luminance" maskUnits="userSpaceOnUse" x="70" y="390" width="380" height="181">
<path fill-rule="evenodd" clip-rule="evenodd" d="M214.545 390.377C180.608 394.105 154.469 404.286 153.947 430.488C104.974 450.797 70.606 498.388 70.606 553.859V570.593H449.394V553.859C449.394 498.388 415.026 450.797 366.053 430.488C365.531 404.286 339.391 394.105 305.454 390.377V425.571C305.454 450.215 285.104 470.193 260 470.193C234.896 470.193 214.545 450.215 214.545 425.571V390.377Z" fill="white"/>
</mask>
<g mask="url(#mask3_22_191)">
<path d="M510 366.074H10V570.593H510V366.074Z" fill="#3C4F5C"/>
</g>
<mask id="mask4_22_191" style="mask-type:luminance" maskUnits="userSpaceOnUse" x="70" y="390" width="380" height="181">
<path fill-rule="evenodd" clip-rule="evenodd" d="M214.545 390.377C180.608 394.105 154.469 404.286 153.947 430.488C104.974 450.797 70.606 498.388 70.606 553.859V570.593H449.394V553.859C449.394 498.388 415.026 450.797 366.053 430.488C365.531 404.286 339.391 394.105 305.454 390.377V425.571C305.454 450.215 285.104 470.193 260 470.193C234.896 470.193 214.545 450.215 214.545 425.571V390.377Z" fill="white"/>
</mask>
<g mask="url(#mask4_22_191)">
<path fill-rule="evenodd" clip-rule="evenodd" d="M203.181 480.863V570.593H189.924V474.191C194.098 476.626 198.535 478.859 203.181 480.863ZM330.075 474.191V549.212C330.075 552.806 327.108 555.719 323.447 555.719C319.786 555.719 316.818 552.806 316.818 549.212V480.863C321.464 478.859 325.902 476.626 330.075 474.191Z" fill="#F4F4F4"/>
</g>
<mask id="mask5_22_191" style="mask-type:luminance" maskUnits="userSpaceOnUse" x="70" y="390" width="380" height="181">
<path fill-rule="evenodd" clip-rule="evenodd" d="M214.545 390.377C180.608 394.105 154.469 404.286 153.947 430.488C104.974 450.797 70.606 498.388 70.606 553.859V570.593H449.394V553.859C449.394 498.388 415.026 450.797 366.053 430.488C365.531 404.286 339.391 394.105 305.454 390.377V425.571C305.454 450.215 285.104 470.193 260 470.193C234.896 470.193 214.545 450.215 214.545 425.571V390.377Z" fill="white"/>
</mask>
<g mask="url(#mask5_22_191)">
<path fill-rule="evenodd" clip-rule="evenodd" d="M182.273 389.732C153.767 395.025 134.053 405.57 134.053 426.143C134.053 462.793 196.624 492.504 260 492.504C323.375 492.504 385.947 462.793 385.947 426.143C385.947 405.57 366.232 395.025 337.727 389.732C354.933 395.961 366.06 406.432 366.06 423.854C366.06 461.769 313.369 492.504 260 492.504C206.631 492.504 153.939 461.769 153.939 423.854C153.939 406.432 165.066 395.961 182.273 389.732Z" fill="black" fill-opacity="0.16"/>
</g>
<path d="M233.485 328.889C233.485 338.877 245.148 345.623 260 345.623C274.852 345.623 286.515 338.877 286.515 328.889C286.515 326.835 284.716 325.171 282.727 325.171C280.279 325.171 279.186 326.854 278.939 328.889C276.586 334.351 270.764 337.658 260 338.185C249.236 337.658 243.414 334.351 241.061 328.889C240.814 326.854 239.721 325.171 237.273 325.171C235.284 325.171 233.485 326.835 233.485 328.889Z" fill="black" fill-opacity="0.6"/>
<path fill-rule="evenodd" clip-rule="evenodd" d="M237.273 291.704C237.273 299.919 247.448 306.578 260 306.578C272.552 306.578 282.727 299.919 282.727 291.704" fill="black" fill-opacity="0.16"/>
<path fill-rule="evenodd" clip-rule="evenodd" d="M184.546 259.069C188.043 252.006 195.917 247.082 205.071 247.082C214.192 247.082 222.044 251.971 225.559 258.994C226.603 261.08 225.117 262.788 223.618 261.523C218.976 257.605 212.384 255.158 205.071 255.158C197.987 255.158 191.579 257.454 186.965 261.159C185.278 262.514 183.523 261.135 184.546 259.069Z" fill="black" fill-opacity="0.6"/>
<path fill-rule="evenodd" clip-rule="evenodd" d="M294.394 259.069C297.891 252.006 305.766 247.082 314.92 247.082C324.041 247.082 331.892 251.971 335.408 258.994C336.452 261.08 334.966 262.788 333.467 261.523C328.825 257.605 322.232 255.158 314.92 255.158C307.836 255.158 301.427 257.454 296.813 261.159C295.126 262.514 293.371 261.135 294.394 259.069Z" fill="black" fill-opacity="0.6"/>
<path fill-rule="evenodd" clip-rule="evenodd" d="M204.219 213.887C193.22 214.387 175.438 222.235 175.895 233.122C175.91 233.479 176.443 233.635 176.704 233.361C181.922 227.858 218.97 222.294 232.018 225.238C233.213 225.508 234.12 224.351 233.364 223.516C226.883 216.362 214.072 213.43 204.219 213.887Z" fill="black" fill-opacity="0.6"/>
<path fill-rule="evenodd" clip-rule="evenodd" d="M317.675 213.887C328.674 214.387 346.456 222.235 345.999 233.122C345.984 233.479 345.451 233.635 345.19 233.361C339.972 227.858 302.924 222.294 289.876 225.238C288.681 225.508 287.774 224.351 288.53 223.516C295.011 216.362 307.822 213.43 317.675 213.887Z" fill="black" fill-opacity="0.6"/>
<mask id="mask6_22_191" style="mask-type:luminance" maskUnits="userSpaceOnUse" x="10" y="50" width="500" height="521">
<path d="M510 50H10V570.593H510V50Z" fill="white"/>
</mask>
<g mask="url(#mask6_22_191)">
<path fill-rule="evenodd" clip-rule="evenodd" d="M324.979 115.085C286.745 93.3328 248.881 96.8942 220.297 103.974C191.714 111.054 174.805 131.159 160.297 160.901C153.174 175.505 148.951 192.775 148.301 208.932C148.047 215.276 148.918 221.824 150.659 227.932C151.297 230.174 154.741 237.947 155.687 231.666C156.001 229.575 154.849 226.691 154.738 224.469C154.592 221.553 154.749 218.599 154.951 215.688C155.33 210.245 156.318 204.905 158.077 199.716C160.591 192.302 163.791 184.262 168.689 178.007C180.812 162.524 201.797 161.641 218.459 153.121C217.013 155.734 211.439 159.963 213.37 162.907C214.704 164.941 219.753 164.324 222.164 164.259C228.506 164.089 234.877 163.005 241.142 162.126C251.015 160.741 260.266 157.933 269.558 154.524C277.165 151.732 285.853 149.146 291.57 143.224C300.795 152.609 312.67 161.434 324.528 167.399C335.168 172.753 352.327 175.428 358.831 186.285C366.53 199.14 362.988 214.93 365.34 228.862C366.234 234.161 368.266 234.042 369.378 229.303C371.266 221.253 372.158 212.89 371.557 204.615C370.196 185.933 363.214 136.838 324.979 115.085Z" fill="#28354B"/>
<mask id="mask7_22_191" style="mask-type:luminance" maskUnits="userSpaceOnUse" x="148" y="98" width="224" height="137">
<path fill-rule="evenodd" clip-rule="evenodd" d="M324.979 115.085C286.745 93.3328 248.881 96.8942 220.297 103.974C191.714 111.054 174.805 131.159 160.297 160.901C153.174 175.505 148.951 192.775 148.301 208.932C148.047 215.276 148.918 221.824 150.659 227.932C151.297 230.174 154.741 237.947 155.687 231.666C156.001 229.575 154.849 226.691 154.738 224.469C154.592 221.553 154.749 218.599 154.951 215.688C155.33 210.245 156.318 204.905 158.077 199.716C160.591 192.302 163.791 184.262 168.689 178.007C180.812 162.524 201.797 161.641 218.459 153.121C217.013 155.734 211.439 159.963 213.37 162.907C214.704 164.941 219.753 164.324 222.164 164.259C228.506 164.089 234.877 163.005 241.142 162.126C251.015 160.741 260.266 157.933 269.558 154.524C277.165 151.732 285.853 149.146 291.57 143.224C300.795 152.609 312.67 161.434 324.528 167.399C335.168 172.753 352.327 175.428 358.831 186.285C366.53 199.14 362.988 214.93 365.34 228.862C366.234 234.161 368.266 234.042 369.378 229.303C371.266 221.253 372.158 212.89 371.557 204.615C370.196 185.933 363.214 136.838 324.979 115.085Z" fill="white"/>
</mask>
<g mask="url(#mask7_22_191)">
<path d="M508.106 50H8.10596V570.593H508.106V50Z" fill="#4A312C"/>
</g>
</g>
</g>
<defs>
<filter id="filter0_f_22_191" x="0" y="0" width="520.342" height="520.342" filterUnits="userSpaceOnUse" color-interpolation-filters="sRGB">
<feFlood flood-opacity="0" result="BackgroundImageFix"/>
<feBlend mode="normal" in="SourceGraphic" in2="BackgroundImageFix" result="shape"/>
<feGaussianBlur stdDeviation="25" result="effect1_foregroundBlur_22_191"/>
</filter>
</defs>
</svg>
