<svg width="90" height="58" viewBox="0 0 90 58" fill="none" xmlns="http://www.w3.org/2000/svg">
<path d="M49.5 20L54.5 15L49.5 10" stroke="#3781AE" stroke-width="4" stroke-linecap="round" stroke-linejoin="round"/>
<path d="M34.5 10L29.5 15L34.5 20" stroke="#3781AE" stroke-width="4" stroke-linecap="round" stroke-linejoin="round"/>
<path d="M45.125 5L38.875 25" stroke="#3781AE" stroke-width="4" stroke-linecap="round" stroke-linejoin="round"/>
<path d="M7.08807 29.4545H10.1278V39.5966C10.1278 40.5341 9.91714 41.3485 9.49574 42.0398C9.07907 42.7311 8.49905 43.2637 7.75568 43.6378C7.01231 44.0118 6.1482 44.1989 5.16335 44.1989C4.28741 44.1989 3.49195 44.045 2.77699 43.7372C2.06676 43.4247 1.50331 42.9512 1.08665 42.3168C0.669981 41.6776 0.464015 40.875 0.46875 39.9091H3.52983C3.5393 40.2926 3.61742 40.6217 3.7642 40.8963C3.91572 41.1662 4.12169 41.3745 4.3821 41.5213C4.64725 41.6634 4.95975 41.7344 5.3196 41.7344C5.69839 41.7344 6.01799 41.6539 6.27841 41.4929C6.54356 41.3272 6.74479 41.0857 6.8821 40.7685C7.01941 40.4512 7.08807 40.0606 7.08807 39.5966V29.4545ZM15.7244 44.206C15.0284 44.206 14.4081 44.0852 13.8636 43.8438C13.3191 43.5975 12.8883 43.2353 12.571 42.7571C12.2585 42.2741 12.1023 41.6728 12.1023 40.9531C12.1023 40.3471 12.2135 39.8381 12.4361 39.4261C12.6586 39.0142 12.9616 38.6828 13.3452 38.4318C13.7287 38.1809 14.1643 37.9915 14.652 37.8636C15.1444 37.7358 15.6605 37.6458 16.2003 37.5938C16.8348 37.5275 17.3461 37.4659 17.7344 37.4091C18.1226 37.3475 18.4044 37.2576 18.5795 37.1392C18.7547 37.0208 18.8423 36.8456 18.8423 36.6136V36.571C18.8423 36.1212 18.7003 35.7732 18.4162 35.527C18.1368 35.2808 17.7391 35.1577 17.223 35.1577C16.6785 35.1577 16.2453 35.2784 15.9233 35.5199C15.6013 35.7566 15.3883 36.0549 15.2841 36.4148L12.4858 36.1875C12.6278 35.5246 12.9072 34.9517 13.3239 34.4688C13.7405 33.9811 14.2779 33.607 14.9361 33.3466C15.599 33.0814 16.366 32.9489 17.2372 32.9489C17.8433 32.9489 18.4233 33.0199 18.9773 33.1619C19.536 33.304 20.0308 33.5241 20.4616 33.8224C20.8973 34.1207 21.2405 34.5043 21.4915 34.973C21.7424 35.437 21.8679 35.9934 21.8679 36.642V44H18.9986V42.4872H18.9134C18.7382 42.8281 18.5038 43.1288 18.2102 43.3892C17.9167 43.6449 17.5639 43.8461 17.152 43.9929C16.7401 44.1349 16.2642 44.206 15.7244 44.206ZM16.5909 42.1179C17.036 42.1179 17.429 42.0303 17.7699 41.8551C18.1108 41.6752 18.3783 41.4337 18.5724 41.1307C18.7666 40.8277 18.8636 40.4844 18.8636 40.1009V38.9432C18.7689 39.0047 18.6387 39.0616 18.473 39.1136C18.312 39.161 18.1297 39.206 17.9261 39.2486C17.7225 39.2865 17.5189 39.322 17.3153 39.3551C17.1117 39.3835 16.9271 39.4096 16.7614 39.4332C16.4063 39.4853 16.0961 39.5682 15.831 39.6818C15.5658 39.7955 15.3598 39.9493 15.2131 40.1435C15.0663 40.3329 14.9929 40.5696 14.9929 40.8537C14.9929 41.2656 15.142 41.5805 15.4403 41.7983C15.7434 42.0114 16.1269 42.1179 16.5909 42.1179ZM29.1442 44.2131C28.0268 44.2131 27.0656 43.9763 26.2607 43.5028C25.4605 43.0246 24.8449 42.3617 24.4141 41.5142C23.9879 40.6667 23.7749 39.6913 23.7749 38.5881C23.7749 37.4706 23.9903 36.4905 24.4212 35.6477C24.8568 34.8002 25.4747 34.1397 26.2749 33.6662C27.075 33.188 28.0268 32.9489 29.13 32.9489C30.0817 32.9489 30.915 33.1217 31.63 33.4673C32.3449 33.813 32.9107 34.2983 33.3274 34.9233C33.7441 35.5483 33.9737 36.2822 34.0163 37.125H31.1612C31.0807 36.5805 30.8677 36.1425 30.522 35.8111C30.1811 35.4749 29.7337 35.3068 29.1797 35.3068C28.7109 35.3068 28.3014 35.4347 27.951 35.6903C27.6054 35.9413 27.3355 36.3082 27.1413 36.7912C26.9472 37.2741 26.8501 37.8589 26.8501 38.5455C26.8501 39.2415 26.9448 39.8333 27.1342 40.321C27.3284 40.8087 27.6006 41.1804 27.951 41.4361C28.3014 41.6918 28.7109 41.8196 29.1797 41.8196C29.5253 41.8196 29.8355 41.7486 30.1101 41.6065C30.3894 41.4645 30.6191 41.2585 30.799 40.9886C30.9837 40.714 31.1044 40.3849 31.1612 40.0014H34.0163C33.969 40.8348 33.7417 41.5687 33.3345 42.2031C32.9321 42.8329 32.3757 43.3253 31.6655 43.6804C30.9553 44.0355 30.1148 44.2131 29.1442 44.2131ZM38.695 40.8608L38.7021 37.2315H39.1424L42.6367 33.0909H46.1097L41.4151 38.5739H40.6978L38.695 40.8608ZM35.9535 44V29.4545H38.979V44H35.9535ZM42.7717 44L39.5614 39.2486L41.5785 37.1108L46.3157 44H42.7717ZM56.6708 36.2017L53.9009 36.3722C53.8536 36.1354 53.7518 35.9223 53.5955 35.733C53.4393 35.5388 53.2333 35.3849 52.9776 35.2713C52.7267 35.1529 52.426 35.0938 52.0756 35.0938C51.6069 35.0938 51.2115 35.1932 50.8896 35.392C50.5676 35.5862 50.4066 35.8466 50.4066 36.1733C50.4066 36.4337 50.5108 36.6539 50.7191 36.8338C50.9274 37.0137 51.2849 37.1581 51.7915 37.267L53.766 37.6648C54.8266 37.8826 55.6173 38.233 56.1381 38.7159C56.659 39.1989 56.9194 39.8333 56.9194 40.6193C56.9194 41.3343 56.7087 41.9616 56.2873 42.5014C55.8706 43.0412 55.2977 43.4626 54.5685 43.7656C53.8441 44.0639 53.0084 44.2131 52.0614 44.2131C50.6173 44.2131 49.4667 43.9124 48.6097 43.3111C47.7575 42.705 47.2579 41.8812 47.1112 40.8395L50.087 40.6832C50.177 41.1236 50.3948 41.4598 50.7404 41.6918C51.0861 41.919 51.5288 42.0327 52.0685 42.0327C52.5988 42.0327 53.025 41.9309 53.3469 41.7273C53.6737 41.5189 53.8394 41.2514 53.8441 40.9247C53.8394 40.6501 53.7234 40.4252 53.4961 40.25C53.2688 40.0701 52.9184 39.9328 52.445 39.8381L50.5558 39.4616C49.4904 39.2486 48.6973 38.8793 48.1765 38.3537C47.6604 37.8281 47.4023 37.1581 47.4023 36.3438C47.4023 35.643 47.5917 35.0393 47.9705 34.5327C48.354 34.026 48.8915 33.6354 49.5827 33.3608C50.2788 33.0862 51.0932 32.9489 52.0259 32.9489C53.4038 32.9489 54.488 33.2401 55.2788 33.8224C56.0742 34.4048 56.5382 35.1979 56.6708 36.2017ZM63.7536 44.2131C62.6503 44.2131 61.6963 43.9787 60.8913 43.5099C60.0911 43.0365 59.4732 42.3783 59.0376 41.5355C58.602 40.688 58.3842 39.7055 58.3842 38.5881C58.3842 37.4612 58.602 36.4763 59.0376 35.6335C59.4732 34.786 60.0911 34.1278 60.8913 33.6591C61.6963 33.1856 62.6503 32.9489 63.7536 32.9489C64.8568 32.9489 65.8085 33.1856 66.6087 33.6591C67.4136 34.1278 68.0339 34.786 68.4695 35.6335C68.9051 36.4763 69.1229 37.4612 69.1229 38.5881C69.1229 39.7055 68.9051 40.688 68.4695 41.5355C68.0339 42.3783 67.4136 43.0365 66.6087 43.5099C65.8085 43.9787 64.8568 44.2131 63.7536 44.2131ZM63.7678 41.8693C64.2696 41.8693 64.6887 41.7273 65.0249 41.4432C65.361 41.1544 65.6143 40.7614 65.7848 40.2642C65.96 39.767 66.0476 39.2012 66.0476 38.5668C66.0476 37.9323 65.96 37.3665 65.7848 36.8693C65.6143 36.3722 65.361 35.9792 65.0249 35.6903C64.6887 35.4015 64.2696 35.2571 63.7678 35.2571C63.2611 35.2571 62.835 35.4015 62.4893 35.6903C62.1484 35.9792 61.8904 36.3722 61.7152 36.8693C61.5447 37.3665 61.4595 37.9323 61.4595 38.5668C61.4595 39.2012 61.5447 39.767 61.7152 40.2642C61.8904 40.7614 62.1484 41.1544 62.4893 41.4432C62.835 41.7273 63.2611 41.8693 63.7678 41.8693ZM74.1158 37.6932V44H71.0902V33.0909H73.9737V35.0156H74.1016C74.343 34.3812 74.7479 33.8793 75.3161 33.5099C75.8842 33.1359 76.5732 32.9489 77.3828 32.9489C78.1404 32.9489 78.8009 33.1146 79.3643 33.446C79.9278 33.7775 80.3658 34.2509 80.6783 34.8665C80.9908 35.4773 81.147 36.2064 81.147 37.054V44H78.1214V37.5938C78.1262 36.9261 77.9557 36.4053 77.6101 36.0312C77.2644 35.6525 76.7886 35.4631 76.1825 35.4631C75.7753 35.4631 75.4155 35.5507 75.103 35.7259C74.7952 35.901 74.5537 36.1567 74.3786 36.4929C74.2081 36.8243 74.1205 37.2244 74.1158 37.6932Z" fill="#1A1E23"/>
<path d="M9.25 54.08C9.07 54.08 8.92333 54.0367 8.81 53.95C8.70333 53.8633 8.61667 53.7267 8.55 53.54L6.46 47.63C6.38667 47.4167 6.4 47.2367 6.5 47.09C6.60667 46.9433 6.78333 46.87 7.03 46.87C7.21 46.87 7.35 46.9133 7.45 47C7.55 47.08 7.63 47.21 7.69 47.39L9.49 52.73H9.09L10.97 47.4C11.0367 47.22 11.12 47.0867 11.22 47C11.32 46.9133 11.45 46.87 11.61 46.87C11.77 46.87 11.8967 46.9133 11.99 47C12.0833 47.0867 12.1633 47.2233 12.23 47.41L14.05 52.73H13.7L15.53 47.39C15.59 47.2167 15.67 47.0867 15.77 47C15.87 46.9133 16.0067 46.87 16.18 46.87C16.3933 46.87 16.55 46.9433 16.65 47.09C16.75 47.2367 16.7633 47.4167 16.69 47.63L14.58 53.55C14.5133 53.73 14.4267 53.8633 14.32 53.95C14.2133 54.0367 14.07 54.08 13.89 54.08C13.71 54.08 13.5667 54.0367 13.46 53.95C13.3533 53.8633 13.2667 53.7267 13.2 53.54L11.46 48.58H11.69L9.93 53.55C9.86333 53.73 9.77667 53.8633 9.67 53.95C9.57 54.0367 9.43 54.08 9.25 54.08ZM19.5678 54.1C19.0145 54.1 18.5378 53.9967 18.1378 53.79C17.7378 53.5833 17.4278 53.29 17.2078 52.91C16.9945 52.53 16.8878 52.08 16.8878 51.56C16.8878 51.0533 16.9911 50.61 17.1978 50.23C17.4111 49.85 17.7011 49.5533 18.0678 49.34C18.4411 49.12 18.8645 49.01 19.3378 49.01C19.6845 49.01 19.9945 49.0667 20.2678 49.18C20.5478 49.2933 20.7845 49.4567 20.9778 49.67C21.1778 49.8833 21.3278 50.1433 21.4278 50.45C21.5345 50.75 21.5878 51.09 21.5878 51.47C21.5878 51.59 21.5445 51.6833 21.4578 51.75C21.3778 51.81 21.2611 51.84 21.1078 51.84H17.8978V51.12H20.7078L20.5478 51.27C20.5478 50.9633 20.5011 50.7067 20.4078 50.5C20.3211 50.2933 20.1911 50.1367 20.0178 50.03C19.8511 49.9167 19.6411 49.86 19.3878 49.86C19.1078 49.86 18.8678 49.9267 18.6678 50.06C18.4745 50.1867 18.3245 50.37 18.2178 50.61C18.1178 50.8433 18.0678 51.1233 18.0678 51.45V51.52C18.0678 52.0667 18.1945 52.4767 18.4478 52.75C18.7078 53.0167 19.0878 53.15 19.5878 53.15C19.7611 53.15 19.9545 53.13 20.1678 53.09C20.3878 53.0433 20.5945 52.9667 20.7878 52.86C20.9278 52.78 21.0511 52.7467 21.1578 52.76C21.2645 52.7667 21.3478 52.8033 21.4078 52.87C21.4745 52.9367 21.5145 53.02 21.5278 53.12C21.5411 53.2133 21.5211 53.31 21.4678 53.41C21.4211 53.51 21.3378 53.5967 21.2178 53.67C20.9845 53.8167 20.7145 53.9267 20.4078 54C20.1078 54.0667 19.8278 54.1 19.5678 54.1ZM25.3977 54.1C24.9844 54.1 24.6211 53.9967 24.3077 53.79C24.0011 53.5833 23.7977 53.3067 23.6977 52.96L23.8077 52.71V53.44C23.8077 53.6467 23.7544 53.8067 23.6477 53.92C23.5411 54.0267 23.3911 54.08 23.1977 54.08C22.9977 54.08 22.8444 54.0267 22.7377 53.92C22.6311 53.8067 22.5777 53.6467 22.5777 53.44V47.5C22.5777 47.2933 22.6311 47.1367 22.7377 47.03C22.8444 46.9233 22.9977 46.87 23.1977 46.87C23.3977 46.87 23.5511 46.9233 23.6577 47.03C23.7711 47.1367 23.8277 47.2933 23.8277 47.5V50.1H23.7077C23.8144 49.7733 24.0211 49.51 24.3277 49.31C24.6344 49.11 24.9911 49.01 25.3977 49.01C25.8311 49.01 26.2077 49.1133 26.5277 49.32C26.8477 49.5267 27.0977 49.82 27.2777 50.2C27.4577 50.5733 27.5477 51.0233 27.5477 51.55C27.5477 52.07 27.4577 52.5233 27.2777 52.91C27.0977 53.29 26.8444 53.5833 26.5177 53.79C26.1977 53.9967 25.8244 54.1 25.3977 54.1ZM25.0477 53.15C25.2944 53.15 25.5111 53.09 25.6977 52.97C25.8844 52.85 26.0277 52.6733 26.1277 52.44C26.2344 52.2 26.2877 51.9033 26.2877 51.55C26.2877 51.0167 26.1744 50.62 25.9477 50.36C25.7211 50.0933 25.4211 49.96 25.0477 49.96C24.8011 49.96 24.5844 50.02 24.3977 50.14C24.2111 50.2533 24.0644 50.43 23.9577 50.67C23.8577 50.9033 23.8077 51.1967 23.8077 51.55C23.8077 52.0767 23.9211 52.4767 24.1477 52.75C24.3744 53.0167 24.6744 53.15 25.0477 53.15ZM32.0887 54C31.8687 54 31.6987 53.9433 31.5787 53.83C31.4653 53.71 31.4087 53.54 31.4087 53.32V47.63C31.4087 47.41 31.4653 47.2433 31.5787 47.13C31.6987 47.01 31.8687 46.95 32.0887 46.95H34.0287C35.2087 46.95 36.1187 47.2533 36.7587 47.86C37.4053 48.4667 37.7287 49.3367 37.7287 50.47C37.7287 51.0367 37.6453 51.54 37.4787 51.98C37.3187 52.4133 37.0787 52.78 36.7587 53.08C36.4453 53.38 36.0587 53.61 35.5987 53.77C35.1453 53.9233 34.622 54 34.0287 54H32.0887ZM32.6887 52.94H33.9487C34.362 52.94 34.7187 52.89 35.0187 52.79C35.3253 52.6833 35.5787 52.53 35.7787 52.33C35.9853 52.1233 36.1387 51.8667 36.2387 51.56C36.3387 51.2467 36.3887 50.8833 36.3887 50.47C36.3887 49.6433 36.1853 49.0267 35.7787 48.62C35.372 48.2133 34.762 48.01 33.9487 48.01H32.6887V52.94ZM41.3159 54.1C40.7625 54.1 40.2859 53.9967 39.8859 53.79C39.4859 53.5833 39.1759 53.29 38.9559 52.91C38.7425 52.53 38.6359 52.08 38.6359 51.56C38.6359 51.0533 38.7392 50.61 38.9459 50.23C39.1592 49.85 39.4492 49.5533 39.8159 49.34C40.1892 49.12 40.6125 49.01 41.0859 49.01C41.4325 49.01 41.7425 49.0667 42.0159 49.18C42.2959 49.2933 42.5325 49.4567 42.7259 49.67C42.9259 49.8833 43.0759 50.1433 43.1759 50.45C43.2825 50.75 43.3359 51.09 43.3359 51.47C43.3359 51.59 43.2925 51.6833 43.2059 51.75C43.1259 51.81 43.0092 51.84 42.8559 51.84H39.6459V51.12H42.4559L42.2959 51.27C42.2959 50.9633 42.2492 50.7067 42.1559 50.5C42.0692 50.2933 41.9392 50.1367 41.7659 50.03C41.5992 49.9167 41.3892 49.86 41.1359 49.86C40.8559 49.86 40.6159 49.9267 40.4159 50.06C40.2225 50.1867 40.0725 50.37 39.9659 50.61C39.8659 50.8433 39.8159 51.1233 39.8159 51.45V51.52C39.8159 52.0667 39.9425 52.4767 40.1959 52.75C40.4559 53.0167 40.8359 53.15 41.3359 53.15C41.5092 53.15 41.7025 53.13 41.9159 53.09C42.1359 53.0433 42.3425 52.9667 42.5359 52.86C42.6759 52.78 42.7992 52.7467 42.9059 52.76C43.0125 52.7667 43.0959 52.8033 43.1559 52.87C43.2225 52.9367 43.2625 53.02 43.2759 53.12C43.2892 53.2133 43.2692 53.31 43.2159 53.41C43.1692 53.51 43.0859 53.5967 42.9659 53.67C42.7325 53.8167 42.4625 53.9267 42.1559 54C41.8559 54.0667 41.5759 54.1 41.3159 54.1ZM46.2277 54.08C46.061 54.08 45.9143 54.0367 45.7877 53.95C45.6677 53.8633 45.5677 53.73 45.4877 53.55L43.8977 49.86C43.8377 49.7133 43.8143 49.5767 43.8277 49.45C43.8477 49.3233 43.9077 49.2233 44.0077 49.15C44.1143 49.07 44.2577 49.03 44.4377 49.03C44.591 49.03 44.7143 49.0667 44.8077 49.14C44.901 49.2067 44.9843 49.3367 45.0577 49.53L46.4077 52.9H46.1077L47.4977 49.52C47.571 49.3333 47.6543 49.2067 47.7477 49.14C47.8477 49.0667 47.981 49.03 48.1477 49.03C48.2943 49.03 48.411 49.07 48.4977 49.15C48.5843 49.2233 48.6377 49.3233 48.6577 49.45C48.6777 49.57 48.6543 49.7033 48.5877 49.85L46.9677 53.55C46.8943 53.73 46.7943 53.8633 46.6677 53.95C46.5477 54.0367 46.401 54.08 46.2277 54.08ZM51.8334 54.1C51.2801 54.1 50.8034 53.9967 50.4034 53.79C50.0034 53.5833 49.6934 53.29 49.4734 52.91C49.2601 52.53 49.1534 52.08 49.1534 51.56C49.1534 51.0533 49.2568 50.61 49.4634 50.23C49.6768 49.85 49.9668 49.5533 50.3334 49.34C50.7068 49.12 51.1301 49.01 51.6034 49.01C51.9501 49.01 52.2601 49.0667 52.5334 49.18C52.8134 49.2933 53.0501 49.4567 53.2434 49.67C53.4434 49.8833 53.5934 50.1433 53.6934 50.45C53.8001 50.75 53.8534 51.09 53.8534 51.47C53.8534 51.59 53.8101 51.6833 53.7234 51.75C53.6434 51.81 53.5268 51.84 53.3734 51.84H50.1634V51.12H52.9734L52.8134 51.27C52.8134 50.9633 52.7668 50.7067 52.6734 50.5C52.5868 50.2933 52.4568 50.1367 52.2834 50.03C52.1168 49.9167 51.9068 49.86 51.6534 49.86C51.3734 49.86 51.1334 49.9267 50.9334 50.06C50.7401 50.1867 50.5901 50.37 50.4834 50.61C50.3834 50.8433 50.3334 51.1233 50.3334 51.45V51.52C50.3334 52.0667 50.4601 52.4767 50.7134 52.75C50.9734 53.0167 51.3534 53.15 51.8534 53.15C52.0268 53.15 52.2201 53.13 52.4334 53.09C52.6534 53.0433 52.8601 52.9667 53.0534 52.86C53.1934 52.78 53.3168 52.7467 53.4234 52.76C53.5301 52.7667 53.6134 52.8033 53.6734 52.87C53.7401 52.9367 53.7801 53.02 53.7934 53.12C53.8068 53.2133 53.7868 53.31 53.7334 53.41C53.6868 53.51 53.6034 53.5967 53.4834 53.67C53.2501 53.8167 52.9801 53.9267 52.6734 54C52.3734 54.0667 52.0934 54.1 51.8334 54.1ZM56.5134 54.1C55.96 54.1 55.5434 53.9433 55.2634 53.63C54.9834 53.31 54.8434 52.8433 54.8434 52.23V47.5C54.8434 47.2933 54.8967 47.1367 55.0034 47.03C55.11 46.9233 55.2634 46.87 55.4634 46.87C55.6634 46.87 55.8167 46.9233 55.9234 47.03C56.0367 47.1367 56.0934 47.2933 56.0934 47.5V52.17C56.0934 52.4767 56.1567 52.7033 56.2834 52.85C56.4167 52.9967 56.6034 53.07 56.8434 53.07C56.8967 53.07 56.9467 53.07 56.9934 53.07C57.04 53.0633 57.0867 53.0567 57.1334 53.05C57.2267 53.0367 57.29 53.0633 57.3234 53.13C57.3567 53.19 57.3734 53.3167 57.3734 53.51C57.3734 53.6767 57.34 53.8067 57.2734 53.9C57.2067 53.9933 57.0967 54.05 56.9434 54.07C56.8767 54.0767 56.8067 54.0833 56.7334 54.09C56.66 54.0967 56.5867 54.1 56.5134 54.1ZM60.2179 54.1C59.7112 54.1 59.2712 53.9967 58.8979 53.79C58.5246 53.5833 58.2346 53.29 58.0279 52.91C57.8212 52.5233 57.7179 52.07 57.7179 51.55C57.7179 51.1567 57.7746 50.8067 57.8879 50.5C58.0079 50.1867 58.1779 49.92 58.3979 49.7C58.6179 49.4733 58.8812 49.3033 59.1879 49.19C59.4946 49.07 59.8379 49.01 60.2179 49.01C60.7246 49.01 61.1646 49.1133 61.5379 49.32C61.9112 49.5267 62.2012 49.82 62.4079 50.2C62.6146 50.58 62.7179 51.03 62.7179 51.55C62.7179 51.9433 62.6579 52.2967 62.5379 52.61C62.4246 52.9233 62.2579 53.1933 62.0379 53.42C61.8179 53.64 61.5546 53.81 61.2479 53.93C60.9412 54.0433 60.5979 54.1 60.2179 54.1ZM60.2179 53.15C60.4646 53.15 60.6812 53.09 60.8679 52.97C61.0546 52.85 61.1979 52.6733 61.2979 52.44C61.4046 52.2 61.4579 51.9033 61.4579 51.55C61.4579 51.0167 61.3446 50.62 61.1179 50.36C60.8912 50.0933 60.5912 49.96 60.2179 49.96C59.9712 49.96 59.7546 50.02 59.5679 50.14C59.3812 50.2533 59.2346 50.43 59.1279 50.67C59.0279 50.9033 58.9779 51.1967 58.9779 51.55C58.9779 52.0767 59.0912 52.4767 59.3179 52.75C59.5446 53.0167 59.8446 53.15 60.2179 53.15ZM64.3696 55.88C64.1696 55.88 64.0163 55.8267 63.9096 55.72C63.8029 55.6133 63.7496 55.4567 63.7496 55.25V49.66C63.7496 49.4533 63.8029 49.2967 63.9096 49.19C64.0163 49.0833 64.1663 49.03 64.3596 49.03C64.5596 49.03 64.7129 49.0833 64.8196 49.19C64.9263 49.2967 64.9796 49.4533 64.9796 49.66V50.44L64.8696 50.14C64.9696 49.8 65.1729 49.5267 65.4796 49.32C65.7929 49.1133 66.1563 49.01 66.5696 49.01C66.9963 49.01 67.3696 49.1133 67.6896 49.32C68.0163 49.5267 68.2696 49.82 68.4496 50.2C68.6296 50.5733 68.7196 51.0233 68.7196 51.55C68.7196 52.07 68.6296 52.5233 68.4496 52.91C68.2696 53.29 68.0196 53.5833 67.6996 53.79C67.3796 53.9967 67.0029 54.1 66.5696 54.1C66.1629 54.1 65.8063 54 65.4996 53.8C65.1929 53.5933 64.9863 53.3267 64.8796 53H64.9996V55.25C64.9996 55.4567 64.9429 55.6133 64.8296 55.72C64.7229 55.8267 64.5696 55.88 64.3696 55.88ZM66.2196 53.15C66.4663 53.15 66.6829 53.09 66.8696 52.97C67.0563 52.85 67.1996 52.6733 67.2996 52.44C67.4063 52.2 67.4596 51.9033 67.4596 51.55C67.4596 51.0167 67.3463 50.62 67.1196 50.36C66.8929 50.0933 66.5929 49.96 66.2196 49.96C65.9729 49.96 65.7563 50.02 65.5696 50.14C65.3829 50.2533 65.2363 50.43 65.1296 50.67C65.0296 50.9033 64.9796 51.1967 64.9796 51.55C64.9796 52.0767 65.0929 52.4767 65.3196 52.75C65.5463 53.0167 65.8463 53.15 66.2196 53.15ZM72.1557 54.1C71.6024 54.1 71.1257 53.9967 70.7257 53.79C70.3257 53.5833 70.0157 53.29 69.7957 52.91C69.5824 52.53 69.4757 52.08 69.4757 51.56C69.4757 51.0533 69.579 50.61 69.7857 50.23C69.999 49.85 70.289 49.5533 70.6557 49.34C71.029 49.12 71.4524 49.01 71.9257 49.01C72.2724 49.01 72.5824 49.0667 72.8557 49.18C73.1357 49.2933 73.3724 49.4567 73.5657 49.67C73.7657 49.8833 73.9157 50.1433 74.0157 50.45C74.1224 50.75 74.1757 51.09 74.1757 51.47C74.1757 51.59 74.1324 51.6833 74.0457 51.75C73.9657 51.81 73.849 51.84 73.6957 51.84H70.4857V51.12H73.2957L73.1357 51.27C73.1357 50.9633 73.089 50.7067 72.9957 50.5C72.909 50.2933 72.779 50.1367 72.6057 50.03C72.439 49.9167 72.229 49.86 71.9757 49.86C71.6957 49.86 71.4557 49.9267 71.2557 50.06C71.0624 50.1867 70.9124 50.37 70.8057 50.61C70.7057 50.8433 70.6557 51.1233 70.6557 51.45V51.52C70.6557 52.0667 70.7824 52.4767 71.0357 52.75C71.2957 53.0167 71.6757 53.15 72.1757 53.15C72.349 53.15 72.5424 53.13 72.7557 53.09C72.9757 53.0433 73.1824 52.9667 73.3757 52.86C73.5157 52.78 73.639 52.7467 73.7457 52.76C73.8524 52.7667 73.9357 52.8033 73.9957 52.87C74.0624 52.9367 74.1024 53.02 74.1157 53.12C74.129 53.2133 74.109 53.31 74.0557 53.41C74.009 53.51 73.9257 53.5967 73.8057 53.67C73.5724 53.8167 73.3024 53.9267 72.9957 54C72.6957 54.0667 72.4157 54.1 72.1557 54.1ZM75.8056 54.08C75.599 54.08 75.439 54.0267 75.3256 53.92C75.219 53.8067 75.1656 53.6467 75.1656 53.44V49.66C75.1656 49.4533 75.219 49.2967 75.3256 49.19C75.4323 49.0833 75.5823 49.03 75.7756 49.03C75.969 49.03 76.119 49.0833 76.2256 49.19C76.3323 49.2967 76.3856 49.4533 76.3856 49.66V50.29H76.2856C76.379 49.89 76.5623 49.5867 76.8356 49.38C77.109 49.1733 77.4723 49.05 77.9256 49.01C78.0656 48.9967 78.1756 49.0333 78.2556 49.12C78.3423 49.2 78.3923 49.3267 78.4056 49.5C78.419 49.6667 78.379 49.8033 78.2856 49.91C78.199 50.01 78.0656 50.07 77.8856 50.09L77.6656 50.11C77.259 50.15 76.9523 50.2767 76.7456 50.49C76.539 50.6967 76.4356 50.99 76.4356 51.37V53.44C76.4356 53.6467 76.3823 53.8067 76.2756 53.92C76.169 54.0267 76.0123 54.08 75.8056 54.08Z" fill="#3781AE"/>
</svg>
